<svg width="20" height="21" xmlns="http://www.w3.org/2000/svg" viewBox="0 0 80 85"
    preserveAspectRatio>
    <g>
        <title>background</title>
        <rect fill="none" id="canvas_background" height="87" width="82" y="-1" x="-1" />
    </g>
    <g>
        <title>Layer 1</title>
        <path id="svg_7" fill="#189dc7"
            d="m58.36,34.1l0,-15.76a4.53,4.53 0 0 0 -0.61,-2.28a4.7,4.7 0 0 0 -1.62,-1.67l-13.74,-7.86a4.25,4.25 0 0 0 -2.28,-0.66a4.15,4.15 0 0 0 -2.25,0.66l-13.7,7.86a4.6,4.6 0 0 0 -1.62,1.61l-0.06,0a4.7,4.7 0 0 0 -0.57,2.28l0,15.82a6.81,6.81 0 0 0 0.09,0.9a3.64,3.64 0 0 0 -1,0.44l-13.67,7.88a4.77,4.77 0 0 0 -1.65,1.68a4.35,4.35 0 0 0 -0.63,2.28l0,15.72a4.35,4.35 0 0 0 0.63,2.28l0,0.09a4.7,4.7 0 0 0 1.65,1.63l13.67,7.9a4.53,4.53 0 0 0 2.28,0.61a4.47,4.47 0 0 0 2.28,-0.61l13.71,-7.9a5,5 0 0 0 0.65,-0.48c0.24,0.18 0.47,0.34 0.7,0.48l13.67,7.9a4.53,4.53 0 0 0 2.28,0.61a4.58,4.58 0 0 0 2.28,-0.61l13.71,-7.9a4.17,4.17 0 0 0 1.61,-1.67a4.43,4.43 0 0 0 0.61,-2.33l0,-15.72a4.44,4.44 0 0 0 -0.61,-2.28a4.67,4.67 0 0 0 -1.61,-1.67l-13.71,-7.86a1.65,1.65 0 0 0 -0.61,-0.3a4.88,4.88 0 0 0 0.12,-1.07m13.1,12.47a1.46,1.46 0 0 1 0.17,0.71l0,15.72a1.45,1.45 0 0 1 -0.17,0.7a1.12,1.12 0 0 1 -0.5,0.53l-13.69,7.95a1.19,1.19 0 0 1 -0.49,0.17l0,-15.89a2.75,2.75 0 0 0 -1.58,-2.59l-13.61,-7.17a0.12,0.12 0 0 0 0.09,-0.13a2.18,2.18 0 0 1 0.52,-0.57a0.71,0.71 0 0 0 0.19,-0.08l13.48,-7.77a1.23,1.23 0 0 1 0.63,-0.19a1.2,1.2 0 0 1 0.65,0.19l13.85,7.85a1.67,1.67 0 0 1 0.5,0.53m-45.71,-29.43l13.65,-7.85a1.45,1.45 0 0 1 0.67,-0.25a1.1,1.1 0 0 1 0.64,0.19l13.75,7.91a1.93,1.93 0 0 1 0.49,0.54a1.18,1.18 0 0 1 0.21,0.7l0,15.76a1.18,1.18 0 0 1 -0.21,0.7a1.93,1.93 0 0 1 -0.49,0.54l-13.69,7.85a2.19,2.19 0 0 1 -0.46,0.23l0,-15.9a2.8,2.8 0 0 0 -0.43,-1.5a2.69,2.69 0 0 0 -1.14,-1.1l-13.62,-7.15a0.34,0.34 0 0 0 0.1,-0.13a2.26,2.26 0 0 1 0.53,-0.54m-2.51,20.9a1.29,1.29 0 0 1 0.67,0.19l13.74,7.81a1.85,1.85 0 0 1 0.48,0.53a1.46,1.46 0 0 1 0.17,0.71l0,15.85a1.34,1.34 0 0 1 -0.17,0.65a1.19,1.19 0 0 1 -0.48,0.53l-13.69,7.91a1.19,1.19 0 0 1 -0.49,0.17l0,-15.89a3.12,3.12 0 0 0 -0.38,-1.5a2.94,2.94 0 0 0 -1.2,-1.09l-13.63,-7.17a0.14,0.14 0 0 0 0.1,-0.13a2.05,2.05 0 0 1 0.53,-0.57l0.07,0l13.61,-7.85a1.18,1.18 0 0 1 0.67,-0.15z" />
    </g>
</svg>